<svg width="14" height="14" viewBox="0 0 16 16" fill="none" xmlns="http://www.w3.org/2000/svg">
<path d="M11.3562 5.63792C11.5579 5.29056 11.4398 4.84548 11.0925 4.64379C10.7451 4.4421 10.3 4.56019 10.0983 4.90754L7.52457 9.34014C7.46463 9.44336 7.32317 9.46181 7.23877 9.37741L5.78699 7.92562C5.50297 7.64161 5.04249 7.64161 4.75847 7.92562C4.47445 8.20964 4.47445 8.67013 4.75847 8.95414L7.04586 11.2415C7.20551 11.4012 7.43026 11.4776 7.65416 11.4484C7.87805 11.4192 8.07568 11.2877 8.18906 11.0925L11.3562 5.63792Z" fill="#1B4978"/>
<path fill-rule="evenodd" clip-rule="evenodd" d="M16 8C16 12.4183 12.4183 16 8 16C3.58172 16 0 12.4183 0 8C0 3.58172 3.58172 0 8 0C12.4183 0 16 3.58172 16 8ZM14.1818 8C14.1818 11.4141 11.4141 14.1818 8 14.1818C4.58588 14.1818 1.81818 11.4141 1.81818 8C1.81818 4.58588 4.58588 1.81818 8 1.81818C11.4141 1.81818 14.1818 4.58588 14.1818 8Z" fill="#1B4978"/>
</svg>
