<svg width="30" height="30" viewBox="0 0 36 36" fill="none" xmlns="http://www.w3.org/2000/svg">
<path d="M12.9605 16.8419C13.6262 17.2656 14.4974 16.7874 14.4974 15.9983V14C14.4974 13.8619 14.6093 13.75 14.7474 13.75H21.125C24.0935 13.75 26.5 16.1565 26.5 19.125C26.5 22.0935 24.0935 24.5 21.125 24.5H15.5C14.9477 24.5 14.5 24.9477 14.5 25.5V26C14.5 26.5523 14.9477 27 15.5 27H21.125C25.4742 27 29 23.4742 29 19.125C29 14.7758 25.4742 11.25 21.125 11.25H14.7474C14.6093 11.25 14.4974 11.1381 14.4974 11V9.00162C14.4974 8.21253 13.6262 7.73432 12.9605 8.15796L7.46312 11.6563C6.84562 12.0492 6.84563 12.9507 7.46312 13.3436L12.9605 16.8419Z" fill="#0E2D52"/>
</svg>
