<svg width="646" height="100" viewBox="0 0 646 100" fill="none" xmlns="http://www.w3.org/2000/svg">
<g clip-path="url(#clip0_537_94)">
<path d="M182.172 3.23098H200.979L232.955 61.0733L264.931 3.23098H283.329V98.2764H267.986V25.4306L239.947 75.8735H225.555L197.516 25.4306V98.2764H182.172L182.172 3.23098Z" fill="#1C2A33"/>
<path d="M332.82 99.9745C325.714 99.9745 319.468 98.4015 314.082 95.2556C308.745 92.1622 304.383 87.6347 301.489 82.187C298.477 76.6202 296.972 70.2383 296.974 63.0414C296.974 55.7553 298.445 49.306 301.387 43.6936C304.328 38.0823 308.412 33.692 313.641 30.5227C318.869 27.3553 324.877 25.7713 331.665 25.7705C338.409 25.7705 344.214 27.3657 349.079 30.5561C353.944 33.7479 357.689 38.2175 360.315 43.9648C362.939 49.7139 364.252 56.4577 364.253 64.1961V68.4049H312.181C313.132 74.1996 315.474 78.7599 319.208 82.0859C322.942 85.4111 327.66 87.0741 333.363 87.0748C337.933 87.0748 341.87 86.3957 345.175 85.0377C348.479 83.6807 351.58 81.6217 354.477 78.8607L362.623 88.8408C354.522 96.2636 344.587 99.9749 332.82 99.9745ZM344.021 43.5913C340.807 40.3106 336.598 38.6698 331.394 38.6691C326.324 38.6691 322.081 40.3439 318.664 43.6936C315.247 47.0433 313.086 51.5465 312.181 57.2034H349.52C349.067 51.4099 347.234 46.8725 344.021 43.5913Z" fill="#1C2A33"/>
<path d="M382.856 40.0272H368.735V27.4677H382.856V6.69287H397.656V27.4677H419.11V40.0272H397.656V71.868C397.656 77.1626 398.561 80.9416 400.372 83.2051C402.181 85.469 405.281 86.6007 409.672 86.6003C411.327 86.6152 412.982 86.5358 414.629 86.3625C415.987 86.2047 417.48 85.9898 419.11 85.7179V98.1408C417.25 98.6783 415.355 99.0868 413.439 99.3633C411.248 99.686 409.035 99.845 406.82 99.8389C390.843 99.8389 382.855 91.1036 382.856 73.6328L382.856 40.0272Z" fill="#1C2A33"/>
<path d="M496.235 98.2763H481.706V88.3651C479.2 92.0115 475.815 94.9659 471.862 96.9538C467.879 98.9665 463.353 99.9734 458.284 99.9745C452.038 99.9745 446.505 98.379 441.684 95.1879C436.864 91.9971 433.074 87.6068 430.313 82.017C427.552 76.4279 426.172 70.035 426.172 62.8381C426.172 55.5975 427.575 49.1934 430.382 43.6258C433.187 38.0578 437.068 33.6901 442.024 30.5228C446.98 27.3553 452.671 25.7713 459.098 25.7705C463.941 25.7705 468.286 26.7096 472.134 28.5878C475.928 30.424 479.215 33.1628 481.706 36.5641V27.4676H496.235L496.235 98.2763ZM481.433 52.2479C479.849 48.2202 477.348 45.0406 473.932 42.709C470.515 40.3784 466.567 39.213 462.086 39.2126C455.749 39.2126 450.702 41.3397 446.945 45.5941C443.189 49.8495 441.311 55.5975 441.311 62.8381C441.311 70.1253 443.122 75.8959 446.743 80.1499C450.363 84.4053 455.273 86.5325 461.474 86.5314C466.045 86.5314 470.119 85.3548 473.695 83.0017C477.208 80.7243 479.916 77.3991 481.433 73.4973L481.433 52.2479Z" fill="#1C2A33"/>
<path d="M524.747 98.2763C527.87 87.8672 531.456 77.1296 535.507 66.0633C539.558 54.9974 543.869 44.1012 548.44 33.3747C553.011 22.6477 557.582 12.5998 562.154 3.23098H580.552C585.169 12.5998 589.751 22.6477 594.3 33.3747C598.848 44.1016 603.148 54.9978 607.199 66.0634C611.249 77.1293 614.836 87.867 617.959 98.2764H600.988C599.901 94.4311 598.724 90.4598 597.457 86.3626C596.189 82.2661 594.831 78.1362 593.384 73.973H548.916C547.512 78.1363 546.177 82.2661 544.91 86.3626C543.642 90.4591 542.465 94.4304 541.379 98.2764L524.747 98.2763ZM571.183 17.9632C568.24 24.4358 565.276 31.2926 562.29 38.5335C559.302 45.7752 556.451 53.0847 553.736 60.462H588.631C585.87 53.0858 583.007 45.7763 580.043 38.5335C577.078 31.293 574.124 24.4362 571.183 17.9632Z" fill="#1C2A33"/>
<path d="M629.568 3.23098H645.318V98.2764H629.568V3.23098Z" fill="#1C2A33"/>
<path d="M43.2408 4.95911e-05C43.1924 4.95911e-05 43.1443 0.000226835 43.0958 0.000476833L42.8979 16.3456C42.9432 16.3451 42.9884 16.3447 43.0338 16.3447C53.7923 16.3447 62.1371 24.8273 80.2749 55.3787L81.3805 57.2387L81.4529 57.3604L91.6061 42.1263L91.5358 42.0086C89.1465 38.1223 86.8511 34.5467 84.6495 31.2816C82.0963 27.4987 79.6546 24.1192 77.2849 21.1019C65.2862 5.82459 55.2492 4.95911e-05 43.2408 4.95911e-05Z" fill="url(#paint0_linear_537_94)"/>
<path d="M43.0962 0.000476833C31.0296 0.0625512 20.3618 7.8654 12.6587 19.8053C12.6362 19.8403 12.6136 19.8753 12.5911 19.9103L26.7309 27.6064C26.7539 27.5716 26.777 27.5367 26.8 27.5021C31.2981 20.7296 36.8958 16.4099 42.8984 16.3456C42.9437 16.3451 42.9889 16.3447 43.0342 16.3447L43.2411 4.95911e-05C43.1926 4.95911e-05 43.1446 0.000226835 43.0962 0.000476833Z" fill="url(#paint1_linear_537_94)"/>
<path d="M12.6586 19.8052C12.6361 19.8402 12.6135 19.8752 12.591 19.9102C7.52923 27.7897 3.75584 37.4588 1.71658 47.8899C1.70775 47.935 1.69895 47.9802 1.69019 48.0255L17.5757 51.7737C17.584 51.7284 17.5924 51.683 17.6007 51.6378C19.2987 42.4706 22.5314 33.9683 26.7308 27.6063C26.7537 27.5716 26.7768 27.5367 26.7998 27.5021L12.6586 19.8052Z" fill="url(#paint2_linear_537_94)"/>
<path d="M17.6009 51.6377L1.71671 47.8899C1.70788 47.935 1.69908 47.9802 1.69031 48.0254C0.578331 53.7621 0.0126083 59.5913 0.000732422 65.4347C0.000732422 65.4819 0.000732422 65.5292 0.000732422 65.5764L16.292 67.0338C16.2907 66.9863 16.2893 66.9396 16.2882 66.892C16.2802 66.5531 16.2762 66.2096 16.276 65.8615C16.2842 61.1359 16.7193 56.4208 17.576 51.7736C17.5841 51.7283 17.5925 51.6829 17.6009 51.6377Z" fill="url(#paint3_linear_537_94)"/>
<path d="M16.7873 72.1169C16.4951 70.4374 16.3294 68.7384 16.2918 67.0341C16.2905 66.9866 16.2892 66.9399 16.288 66.8923L0.000703076 65.435C0.000703076 65.4822 0.000703076 65.5294 0.000703076 65.5766V65.5859C-0.0165086 69.0019 0.282328 72.4122 0.893394 75.7733C0.901919 75.8188 0.910295 75.8635 0.918945 75.9089L16.8121 72.2529C16.8036 72.2077 16.7955 72.1622 16.7873 72.1169Z" fill="url(#paint4_linear_537_94)"/>
<path d="M20.4988 80.5486C18.726 78.6136 17.4713 75.8224 16.8118 72.2527C16.8034 72.2076 16.7953 72.1621 16.7872 72.1167L0.893066 75.7731C0.901591 75.8186 0.909967 75.8633 0.918617 75.9087C2.11995 82.2161 4.47608 87.4728 7.85002 91.4495C7.88002 91.4849 7.91013 91.5202 7.94034 91.5554L20.5935 80.6504C20.5618 80.6167 20.5302 80.5827 20.4988 80.5486Z" fill="url(#paint5_linear_537_94)"/>
<path d="M67.5863 35.3358C58.0085 50.0267 52.2064 59.241 52.2064 59.241C39.448 79.2408 35.0341 83.7232 27.9308 83.7232C24.9668 83.7232 22.4906 82.6679 20.5935 80.6505C20.5619 80.6169 20.5302 80.5828 20.4989 80.5486L7.8501 91.4496C7.8801 91.485 7.9102 91.5203 7.94042 91.5555C12.5991 96.986 19.175 99.9991 27.3101 99.9991C39.6179 99.9991 48.4699 94.1966 64.2061 66.6891C64.2061 66.6891 70.7661 55.105 75.2788 47.1254C72.4834 42.6122 69.9396 38.7047 67.5863 35.3358Z" fill="#0082FB"/>
<path d="M84.658 12.1479C84.6257 12.1822 84.5927 12.2172 84.5605 12.2516C81.9654 15.0573 79.5356 18.0114 77.2832 21.099C79.6529 24.1163 82.0992 27.5024 84.6524 31.2853C87.6617 26.6407 90.4707 22.8789 93.2238 19.9957C93.2563 19.9615 93.2885 19.9282 93.3211 19.8943L84.658 12.1479Z" fill="url(#paint6_linear_537_94)"/>
<path d="M131.157 10.7079C124.478 3.95978 116.513 0.000270844 107.999 0.000270844C99.0212 0.000270844 91.4695 4.92022 84.658 12.148C84.6257 12.1822 84.5928 12.2172 84.5605 12.2516L93.2239 19.9957C93.2564 19.9616 93.2886 19.9282 93.3212 19.8944C97.8084 15.2269 102.151 12.8967 106.965 12.8967H106.965C112.146 12.8967 116.996 15.3357 121.197 19.6116C121.23 19.6451 121.263 19.6783 121.296 19.7121L131.257 10.8083C131.223 10.7747 131.19 10.7414 131.157 10.7079Z" fill="#0082FB"/>
<path d="M150.467 63.284C150.093 41.6172 142.511 22.2473 131.257 10.8086C131.223 10.7749 131.19 10.7416 131.157 10.7081L121.197 19.6119C121.23 19.6454 121.263 19.6786 121.296 19.7123C129.762 28.4091 135.569 44.5854 136.097 63.2794C136.099 63.3264 136.1 63.3735 136.101 63.4206L150.469 63.4252C150.469 63.3781 150.468 63.3311 150.467 63.284Z" fill="url(#paint7_linear_537_94)"/>
<path d="M150.469 63.4249C150.469 63.3779 150.468 63.3308 150.467 63.2837L136.097 63.2791C136.099 63.3261 136.1 63.3732 136.101 63.4203C136.125 64.2977 136.137 65.1804 136.136 66.0684C136.136 71.1653 135.375 75.2854 133.827 78.26C133.804 78.3041 133.781 78.3484 133.757 78.392L144.471 89.5344C144.497 89.494 144.523 89.4538 144.55 89.4132C148.439 83.4118 150.481 75.0749 150.481 64.9651C150.481 64.4504 150.477 63.937 150.469 63.4249Z" fill="url(#paint8_linear_537_94)"/>
<path d="M133.827 78.2602C133.804 78.3043 133.781 78.3486 133.757 78.3922C132.417 80.8995 130.505 82.5718 128.005 83.3031L132.889 98.6951C133.536 98.4755 134.165 98.2289 134.778 97.9554C134.961 97.8739 135.143 97.7901 135.322 97.7038C135.426 97.6542 135.529 97.6038 135.632 97.5526C138.89 95.9089 141.694 93.4908 143.798 90.5104C143.933 90.3237 144.066 90.1354 144.197 89.9435C144.289 89.8084 144.381 89.672 144.471 89.5344C144.497 89.4941 144.523 89.4538 144.55 89.4132L133.827 78.2602Z" fill="url(#paint9_linear_537_94)"/>
<path d="M124.895 83.7233C123.351 83.7603 121.817 83.4615 120.399 82.8476L115.398 98.6059C118.209 99.5662 121.207 99.9989 124.551 99.9989C127.43 100.026 130.294 99.5699 133.023 98.6492L128.14 83.2625C127.088 83.5778 125.994 83.7331 124.895 83.7233Z" fill="url(#paint10_linear_537_94)"/>
<path d="M114.889 78.3336C114.858 78.2981 114.827 78.2623 114.796 78.2262L103.29 90.1936C103.322 90.2281 103.354 90.2624 103.386 90.2966C107.384 94.5575 111.202 97.2006 115.532 98.6512L120.529 82.9045C118.704 82.1207 116.94 80.7 114.889 78.3336Z" fill="url(#paint11_linear_537_94)"/>
<path d="M114.796 78.2264C111.344 74.2126 107.075 67.5298 100.359 56.7233L91.6065 42.1264L91.5362 42.0087L81.3809 57.2387L81.4532 57.3605L87.6547 67.7929C93.666 77.8522 98.5633 85.1296 103.289 90.1936C103.322 90.2281 103.354 90.2624 103.386 90.2966L114.889 78.3337C114.858 78.2982 114.827 78.2625 114.796 78.2264Z" fill="url(#paint12_linear_537_94)"/>
</g>
<defs>
<linearGradient id="paint0_linear_537_94" x1="84.8576" y1="51.1651" x2="51.1484" y2="6.99435" gradientUnits="userSpaceOnUse">
<stop offset="0.0006" stop-color="#0867DF"/>
<stop offset="0.4539" stop-color="#0668E1"/>
<stop offset="0.8591" stop-color="#0064E0"/>
</linearGradient>
<linearGradient id="paint1_linear_537_94" x1="19.2328" y1="22.5516" x2="42.3426" y2="5.00693" gradientUnits="userSpaceOnUse">
<stop offset="0.1323" stop-color="#0064DF"/>
<stop offset="0.9988" stop-color="#0064E0"/>
</linearGradient>
<linearGradient id="paint2_linear_537_94" x1="9.43751" y1="48.2979" x2="18.7077" y2="24.9621" gradientUnits="userSpaceOnUse">
<stop offset="0.0147" stop-color="#0072EC"/>
<stop offset="0.6881" stop-color="#0064DF"/>
</linearGradient>
<linearGradient id="paint3_linear_537_94" x1="8.17872" y1="65.1558" x2="9.25134" y2="50.904" gradientUnits="userSpaceOnUse">
<stop offset="0.0731" stop-color="#007CF6"/>
<stop offset="0.9943" stop-color="#0072EC"/>
</linearGradient>
<linearGradient id="paint4_linear_537_94" x1="8.76852" y1="72.8974" x2="8.00127" y2="67.1874" gradientUnits="userSpaceOnUse">
<stop offset="0.0731" stop-color="#007FF9"/>
<stop offset="1" stop-color="#007CF6"/>
</linearGradient>
<linearGradient id="paint5_linear_537_94" x1="8.31799" y1="74.3972" x2="13.0996" y2="84.5389" gradientUnits="userSpaceOnUse">
<stop offset="0.0731" stop-color="#007FF9"/>
<stop offset="1" stop-color="#0082FB"/>
</linearGradient>
<linearGradient id="paint6_linear_537_94" x1="81.8106" y1="25.3257" x2="88.132" y2="16.5829" gradientUnits="userSpaceOnUse">
<stop offset="0.2799" stop-color="#007FF8"/>
<stop offset="0.9141" stop-color="#0082FB"/>
</linearGradient>
<linearGradient id="paint7_linear_537_94" x1="129.873" y1="13.9948" x2="143.097" y2="62.6419" gradientUnits="userSpaceOnUse">
<stop stop-color="#0082FB"/>
<stop offset="0.9995" stop-color="#0081FA"/>
</linearGradient>
<linearGradient id="paint8_linear_537_94" x1="146.29" y1="64.5028" x2="137.921" y2="81.4155" gradientUnits="userSpaceOnUse">
<stop offset="0.0619" stop-color="#0081FA"/>
<stop offset="1" stop-color="#0080F9"/>
</linearGradient>
<linearGradient id="paint9_linear_537_94" x1="131.269" y1="90.3822" x2="139.092" y2="85.0536" gradientUnits="userSpaceOnUse">
<stop stop-color="#027AF3"/>
<stop offset="1" stop-color="#0080F9"/>
</linearGradient>
<linearGradient id="paint10_linear_537_94" x1="118.999" y1="91.4233" x2="129.87" y2="91.4233" gradientUnits="userSpaceOnUse">
<stop stop-color="#0377EF"/>
<stop offset="0.9994" stop-color="#0279F1"/>
</linearGradient>
<linearGradient id="paint11_linear_537_94" x1="109.548" y1="85.4359" x2="117.363" y2="90.0341" gradientUnits="userSpaceOnUse">
<stop offset="0.0019" stop-color="#0471E9"/>
<stop offset="1" stop-color="#0377EF"/>
</linearGradient>
<linearGradient id="paint12_linear_537_94" x1="85.7059" y1="51.5303" x2="110.743" y2="83.0092" gradientUnits="userSpaceOnUse">
<stop offset="0.2765" stop-color="#0867DF"/>
<stop offset="1" stop-color="#0471E9"/>
</linearGradient>
<clipPath id="clip0_537_94">
<rect width="646" height="100" fill="white"/>
</clipPath>
</defs>
</svg>
